[CENTER][SIZE=5][COLOR=Plum][B]TEAM DAYN PROUDLY PRESENTS[/B][/COLOR][/SIZE]

[I]WITH INSPIRATION OF[/I]

[SIZE=5][B][COLOR=SeaGreen]-=![POSTERBHAI]!=-[/COLOR][/B][/SIZE]

[SIZE=6][B][COLOR=Lime]The Mechanic (2011) (In Hindi) 1cd TS RIP XVID * FIRST ON NET*[/COLOR][/B][/SIZE]



[B]Media Info:

[code]
Format                           : AVI
Format/Info                      : Audio Video Interleave
File size                        : 770 MiB
Duration                         : 1h 24mn
Overall bit rate                 : 1 276 Kbps
Writing application              : Lavf52.39.1

Video
ID                               : 0
Format                           : xvid
Codec ID                         : xvid
Duration                         : 1h 24mn
Bit rate                         : 1 199 Kbps
Width                            : 624 pixels
Height                           : 352 pixels
Display aspect ratio             : 16:9
Frame rate                       : 25.000 fps
Bits/(Pixel*Frame)               : 0.218
Stream size                      : 724 MiB (94%)

Audio
ID                               : 1
Format                           : MPEG Audio
Format version                   : Version 1
Format profile                   : Layer 3
Mode                             : Joint stereo
Codec ID                         : 55
Codec ID/Hint                    : MP3
Duration                         : 1h 24mn
Bit rate mode                    : Constant
Bit rate                         : 64.0 Kbps
Channel(s)                       : 2 channels
Sampling rate                    : 44.1 KHz
Compression mode                 : Lossy
Stream size                      : 38.6 MiB (5%)
Alignment                        : Aligned on interleaves
Interleave, duration             : 26 ms (0.65 video frame)
Interleave, preload duration     : 26 ms
[/code]Screens:





Sample:

[code] 
http://www.duckload.com/download/2998539/Mechanic-2011-Hindi.Dubbed.Dayn.sample.avi
[/code]



[URL="http://[/B"][/URL][/CENTER]